<svg width="300" height="300" xmlns="http://www.w3.org/2000/svg">
 <title>logo</title>

 <g>
  <title>Layer 1</title>
  <ellipse stroke="#000" fill="#ff4a3f" cx="154" cy="154.5" id="svg_2" rx="135.00001" ry="133" stroke-dasharray="2,2" stroke-width="0"/>
  <text fill="#ffffff" stroke-width="0" stroke-dasharray="2,2" x="128.97783" y="132.04087" id="svg_4" font-size="24" font-family="'Yrsa'" text-anchor="start" xml:space="preserve" stroke="#000" transform="matrix(10.5363 0 0 11.4253 -1295.61 -1265.44)" font-style="normal" font-weight="normal">U</text>
  <path stroke="#000" fill="#ffffff" stroke-width="0" stroke-dasharray="2,2" opacity="NaN" d="m71.36741,39.88177c-71.4236,20.57646 98.63259,14.14631 98.63259,14.14631c0,0 -27.20899,-34.72279 -98.63259,-14.14631z" id="svg_6"/>
  <path fill="#ff4a3f" stroke="#000" stroke-width="0" stroke-dasharray="2,2" opacity="NaN" d="m38,123.5c-7,37 24,-30 24,-30.5c0,0.5 13,81.5 13,81c0,0.5 -23,-51.5 -23,-52" id="svg_7"/>
  <path fill="#ff4a3f" stroke="#000" stroke-width="0" stroke-dasharray="2,2" opacity="NaN" d="m34,116.5c7,44 -4,84 7,44c11,-40 23,24 23,24c0,0 -25,-61 -25,-61" id="svg_8"/>
  <path fill="#ff4a3f" stroke-width="0" stroke-dasharray="2,2" opacity="NaN" d="m39,120.5c0,0 19.03448,57 19.03448,57c0,0 -1.18966,-148 -1.18966,-67c0,81 2.37931,138 0,81c-2.37931,-57 51.15517,55 51.15517,55c0,0 -69,-126 -69,-126l0.00001,0z" id="svg_9" stroke="#000"/>
  <path id="svg_1" d="m265,82.5c0,0 -40,57 -40,57c0,0 40,-57 40,-57z" opacity="NaN" stroke-dasharray="2,2" stroke-width="0" stroke="#000" fill="#ffffff"/>
  <path transform="rotate(-20.5129 258.377 139.851)" stroke="#000" id="svg_3" d="m284.50769,54.34659c0,0 -78.52861,155.82559 -43.06408,170.20949c35.46454,14.3839 43.06408,-170.20949 43.06408,-170.20949z" opacity="NaN" stroke-dasharray="2,2" stroke-width="0" fill="#ffffff"/>
 </g>
</svg>